<?xml version="1.0" encoding="utf-8"?>
<!-- Generator: Adobe Illustrator 26.0.1, SVG Export Plug-In . SVG Version: 6.00 Build 0)  -->
<svg version="1.1" id="Layer_1" xmlns="http://www.w3.org/2000/svg" xmlns:xlink="http://www.w3.org/1999/xlink" x="0px" y="0px"
	 viewBox="0 0 100 100" style="enable-background:new 0 0 100 100;" xml:space="preserve">
<g>
	<path d="M97.28,7.7c0,1.68-1.72,4.1-5.17,7.27c-3.45,3.17-7.65,6.2-12.61,9.1c-0.64,1.99-1.59,5.61-2.84,10.86
		c-2,8.22-3.84,14.05-5.51,17.5c-1.68,3.45-4.44,6.95-8.3,10.52C51.71,73.27,39.24,78.42,25.42,78.42c-3.96,0-7.46-0.65-10.49-1.94
		c-1.68,3.22-2.52,6.03-2.52,8.41c0,3.01,1.03,5.78,3.08,8.3c0.21,0.21,0.32,0.45,0.32,0.74c0,0.28-0.18,0.42-0.53,0.42
		c-0.83,0-1.72-1.09-2.67-3.26c-0.95-2.17-1.43-4.2-1.43-6.1c0-2.73,0.91-5.74,2.73-9.03C6.45,72.18,2.72,65.69,2.72,56.49
		c0-5.91,1.78-11.79,5.35-17.63c3.57-5.84,8.58-11.11,15.05-15.79c8.25-5.95,16.4-8.92,24.47-8.92c4.39,0,7.88,1.21,10.47,3.62
		c2.59,2.41,3.88,5.69,3.88,9.81c0,2.2-0.32,4.49-0.96,6.87c5.25-3.43,9.89-6.33,13.92-8.71c2.57-5.49,5.8-10.21,9.69-14.17
		c3.89-3.95,7.28-5.93,10.17-5.93C96.44,5.65,97.28,6.33,97.28,7.7z M60.98,27.37c0-3.67-1.19-6.63-3.56-8.87
		c-2.37-2.24-5.51-3.36-9.4-3.36c-9.6,0-18.89,4.9-27.87,14.69C11.17,39.63,6.68,49.78,6.68,60.27c0,6.89,2.59,11.79,7.76,14.69
		c2.43-3.92,5.91-8.2,10.44-12.86c-2.36-1.99-3.53-4.37-3.53-7.14c0-2.1,0.68-3.89,2.03-5.38c1.36-1.48,3-2.23,4.93-2.23
		c2.39,0,3.59,1.08,3.59,3.25c0,1.12-0.45,2.09-1.34,2.91c-0.89,0.82-1.95,1.23-3.16,1.23c-1.75,0-2.62-0.82-2.62-2.47
		c0-0.52,0.18-1.08,0.54-1.68c0.14-0.45,0.21-0.72,0.21-0.79c0-0.21-0.11-0.31-0.32-0.31c-0.61,0-1.23,0.63-1.87,1.89
		c-0.64,1.26-0.96,2.5-0.96,3.73c0,2.31,1.09,4.37,3.27,6.19c7.18-7.42,18.51-16.07,34-25.97C60.53,32.27,60.98,29.61,60.98,27.37z
		 M74.26,27.16c-4.18,2.59-8.75,5.53-13.71,8.82c-2.36,7.42-6.49,13.92-12.39,19.52c-5.91,5.59-11.58,8.39-17,8.39
		c-1.64,0-3.45-0.42-5.41-1.26c-4.03,4.09-7.46,8.39-10.28,12.91c2.93,1.29,6.25,1.94,9.96,1.94c6.71,0,13.21-1.86,19.49-5.59
		c6.28-3.72,11.67-8.89,16.17-15.5c2.11-3.08,3.77-5.94,4.98-8.58c1.21-2.64,3.18-7.62,5.89-14.93
		C72.6,31.06,73.36,29.16,74.26,27.16z M59.1,36.82l-3.53,2.36C42.11,48.27,32.4,55.85,26.44,61.9c1.5,0.77,3.1,1.16,4.82,1.16
		c5,0,10.23-2.57,15.69-7.72C52.41,50.2,56.46,44.02,59.1,36.82z M96.26,7.8c0-0.84-0.5-1.26-1.5-1.26c-2.4,0-5.06,1.62-8,4.85
		c-2.95,3.24-5.22,7.02-6.83,11.36c4.71-2.83,8.61-5.67,11.7-8.5C94.72,11.42,96.26,9.27,96.26,7.8z"/>
</g>
</svg>
