<?xml version="1.0" encoding="utf-8"?>
<!-- Generator: Adobe Illustrator 26.0.1, SVG Export Plug-In . SVG Version: 6.00 Build 0)  -->
<svg version="1.1" id="Layer_1" xmlns="http://www.w3.org/2000/svg" xmlns:xlink="http://www.w3.org/1999/xlink" x="0px" y="0px"
	 viewBox="0 0 100 37.25" style="enable-background:new 0 0 100 37.25;" xml:space="preserve">
<g>
	<path d="M61.06,5.67c0,0.35-0.79,0.86-2.36,1.52c-1.58,0.66-3.5,1.29-5.77,1.9c-0.29,0.42-0.73,1.17-1.3,2.27
		c-0.91,1.71-1.76,2.93-2.52,3.65c-0.77,0.72-2.03,1.45-3.8,2.19c-5.1,2.15-10.8,3.23-17.12,3.23c-1.81,0-3.41-0.13-4.8-0.4
		c-0.77,0.67-1.15,1.26-1.15,1.75c0,0.63,0.47,1.21,1.41,1.73c0.1,0.04,0.15,0.09,0.15,0.15s-0.08,0.09-0.24,0.09
		c-0.38,0-0.79-0.23-1.22-0.68s-0.65-0.88-0.65-1.27c0-0.57,0.42-1.2,1.25-1.88c-3.41-0.79-5.12-2.14-5.12-4.06
		c0-1.23,0.82-2.46,2.45-3.68c1.63-1.22,3.93-2.32,6.88-3.29c3.77-1.24,7.5-1.86,11.19-1.86c2.01,0,3.6,0.25,4.79,0.75
		c1.18,0.5,1.78,1.19,1.78,2.05c0,0.46-0.15,0.94-0.44,1.43c2.4-0.71,4.52-1.32,6.37-1.82C52,8.29,53.47,7.3,55.25,6.48
		c1.78-0.82,3.33-1.24,4.65-1.24C60.68,5.24,61.06,5.38,61.06,5.67z M44.45,9.77c0-0.77-0.54-1.38-1.63-1.85
		c-1.09-0.47-2.52-0.7-4.3-0.7c-4.39,0-8.64,1.02-12.75,3.06c-4.11,2.04-6.16,4.16-6.16,6.35c0,1.44,1.18,2.46,3.55,3.06
		c1.11-0.82,2.7-1.71,4.78-2.68c-1.08-0.42-1.62-0.91-1.62-1.49c0-0.44,0.31-0.81,0.93-1.12c0.62-0.31,1.37-0.46,2.25-0.46
		c1.09,0,1.64,0.23,1.64,0.68c0,0.23-0.2,0.44-0.61,0.61c-0.41,0.17-0.89,0.26-1.45,0.26c-0.8,0-1.2-0.17-1.2-0.51
		c0-0.11,0.08-0.23,0.25-0.35c0.06-0.09,0.1-0.15,0.1-0.16c0-0.04-0.05-0.07-0.15-0.07c-0.28,0-0.56,0.13-0.86,0.39
		s-0.44,0.52-0.44,0.78c0,0.48,0.5,0.91,1.49,1.29c3.28-1.55,8.47-3.35,15.56-5.42C44.25,10.79,44.45,10.24,44.45,9.77z M50.53,9.73
		c-1.91,0.54-4,1.15-6.27,1.84c-1.08,1.55-2.97,2.9-5.67,4.07c-2.7,1.17-5.3,1.75-7.78,1.75c-0.75,0-1.58-0.09-2.47-0.26
		c-1.85,0.85-3.41,1.75-4.7,2.69c1.34,0.27,2.86,0.4,4.56,0.4c3.07,0,6.04-0.39,8.92-1.17c2.87-0.78,5.34-1.85,7.4-3.23
		c0.96-0.64,1.72-1.24,2.28-1.79c0.55-0.55,1.45-1.59,2.69-3.11C49.77,10.54,50.12,10.14,50.53,9.73z M43.59,11.74l-1.62,0.49
		c-6.16,1.9-10.6,3.48-13.33,4.74c0.69,0.16,1.42,0.24,2.2,0.24c2.29,0,4.68-0.54,7.18-1.61C40.53,14.53,42.38,13.24,43.59,11.74z
		 M60.59,5.69c0-0.18-0.23-0.26-0.69-0.26c-1.1,0-2.32,0.34-3.66,1.01c-1.35,0.67-2.39,1.46-3.12,2.37
		c2.16-0.59,3.94-1.18,5.35-1.77C59.89,6.44,60.59,6,60.59,5.69z"/>
</g>
<g>
	<path d="M47.89,22.87c-0.26,0-0.52,0.01-0.79,0.01c-3.49,0.07-6.36,0.49-6.79,2.35c-0.31,0.09-0.9,0.22-1.36,0.22
		c-0.43,0-1.03-0.12-1.39-0.2c-0.42-1.86-3.31-2.3-6.8-2.36c-0.27,0-0.54-0.01-0.79-0.01c-7.21,0.01-8.93,0.01-8.35,1.73
		c0.18,0.54,1.06,0.88,1.14,1.14c0.25,0.79,0.6,2.33,1.15,3.44c1.71,3.43,3.38,4.57,6.85,4.57c2.25,0,6.72-1.66,6.85-7.7
		c0.27,0.09,0.7,0.18,1.34,0.18c0.61,0,1.04-0.09,1.31-0.17c0.14,6.04,4.6,7.7,6.84,7.7c3.48,0,5.14-1.14,6.86-4.57
		c0.54-1.11,0.9-2.64,1.14-3.44c0.09-0.26,0.96-0.6,1.14-1.14C56.81,22.88,55.1,22.88,47.89,22.87z M37.03,25.77
		c-0.01,5.84-4.17,7.4-6.28,7.4c-3.44,0-4.81-1.19-6.34-4.25c-0.96-1.92-0.99-2.97-0.51-3.75c0.63-1.02,2.48-1.72,6.06-1.72h0.78
		c3.89,0.08,5.85,0.65,6.22,1.84c0.05,0.14,0.07,0.3,0.07,0.45V25.77z M53.45,28.91c-1.53,3.06-2.9,4.25-6.35,4.25
		c-2.12,0-6.28-1.56-6.28-7.43c0-0.06,0.01-0.13,0.02-0.19c0-0.03,0-0.06,0.01-0.08v-0.03c0.25-1.3,2.2-1.92,6.28-2h0.77
		c3.58,0,5.43,0.7,6.07,1.72C54.43,25.95,54.4,26.99,53.45,28.91z"/>
	<path d="M34.45,30.67c-2.3,1.39-5.51,1.27-7.72-0.26C29.37,30.97,31.79,31.05,34.45,30.67z"/>
	<path d="M51.14,30.67c-2.3,1.39-5.52,1.27-7.73-0.26C46.05,30.97,48.47,31.05,51.14,30.67z"/>
</g>
<g>
	<path d="M54.78,24.56c0-0.44,0.35-0.81,0.8-0.81c0.41,0,0.75,0.35,0.73,0.73c-0.06,1.54-0.02,6.34,0.34,6.34
		c0.19-0.44,1.02-2.96,1.83-4.85c0.28-0.66,1.02-1.97,1.73-1.97c0.88,0,1.19,1.08,1.4,1.91c0.5,1.99,0.89,4.93,1.79,4.93
		c0.71,0,1.56-2.49,1.99-3.63c0.09-0.23,0.2-0.42,0.39-0.35c0.11,0.06,0.09,0.29,0.02,0.64c-0.24,1.04-1.29,4.73-3.07,4.73
		c-2.27-0.04-2.5-6.92-3.04-6.92c-0.39,0-1.45,3.13-2.12,5.24c-0.45,1.41-0.65,2.38-1.15,2.57c-0.5,0.19-0.88,0-1.08-0.5
		c-0.15-0.37-0.24-0.87-0.28-1.16C54.76,29.19,54.74,26.93,54.78,24.56z"/>
	<path d="M67.9,31.7c0.99-0.1,2.05-3.25,2.35-4.71c0.05-0.25,0.17-0.31,0.26-0.29c0.11,0.04,0.17,0.19,0.13,0.46
		c-0.26,2.03-1.38,5.6-3.11,5.85c-3.04,0.41-2.22-6.51-1.81-8.11c0.11-0.44,0.39-0.64,0.71-0.66c0.47-0.02,0.97,0.39,0.84,0.91
		C66.89,26.72,66.45,31.84,67.9,31.7z M65.98,19.3c0-0.68,0.58-1.41,1.17-1.43c0.52,0,0.99,0.29,0.99,1.1
		c0,0.71-0.63,1.39-1.23,1.41C66.5,20.38,65.98,20,65.98,19.3z"/>
	<path d="M80.33,26.33c0.11,0,0.17,0.17,0.11,0.44c-0.21,0.99-1.4,5.02-2.93,5.02c-1.27,0-1.73-2.36-1.86-4.15
		c-0.43,2.28-1.49,5.7-3.58,5.68c-1.71-0.02-2.37-2.2-2.27-4.02c0.09-2.07,0.89-4.77,2.79-5.72c0.41-0.21,0.82-0.29,1.21-0.29
		c0.76,0.02,1.43,0.46,1.84,1.12c0.15-0.21,0.45-0.37,0.71-0.37c0.3,0,0.58,0.21,0.56,0.73c0,0.58,0.19,5.51,1.15,5.51
		c0.67,0,1.75-3.03,1.92-3.54C80.1,26.45,80.23,26.33,80.33,26.33z M75.2,26.26c-0.05-0.27-0.11-0.62-0.21-1
		c-0.15-0.6-0.45-1.2-1.06-1.22c-1.68-0.02-2.42,3.26-2.5,4.87c-0.04,0.91-0.07,3.11,1.17,3.11C73.99,32.01,74.94,28.4,75.2,26.26z"
		/>
</g>
</svg>
