<?xml version="1.0" encoding="utf-8"?>
<!-- Generator: Adobe Illustrator 26.0.1, SVG Export Plug-In . SVG Version: 6.00 Build 0)  -->
<svg version="1.1" id="Layer_1" xmlns="http://www.w3.org/2000/svg" xmlns:xlink="http://www.w3.org/1999/xlink" x="0px" y="0px"
	 viewBox="0 0 89 36" style="enable-background:new 0 0 89 36;" xml:space="preserve">
<style type="text/css">
	.st0{display:none;}
	.st1{display:inline;}
	.st2{display:inline;fill:#FFFFFF;}
	.st3{font-family:'CooperBlack';}
	.st4{font-size:14px;}
	.st5{letter-spacing:5;}
</style>
<g class="st0">
	<path class="st1" d="M-40.01-89c0,0-0.42,25.7-17,25C-72.54-64.66-73.89-86.21-74-88.9c0.05,0.25,0.26,0.48,0.61,0.71
		C-71.4-86.93-64.82-86-57.01-86C-47.62-86-40.01-87.34-40.01-89z"/>
	<path class="st2" d="M-40.01-89c0,1.66-7.61,3-17,3c-7.81,0-14.39-0.93-16.38-2.19c-0.35-0.23-0.56-0.46-0.61-0.71v-0.14
		c0-0.05,0.01-0.1,0.02-0.14c0.54-1.58,7.93-2.82,16.97-2.82C-47.62-92-40.01-90.66-40.01-89z"/>
	<g class="st1">
		<path d="M-57.45-92.78c-1.36-0.21-2.23-1.65-2.33-2.96c-0.38-3.46,4.03-7.71,0.05-10.2c0.65,0.04,1.25,0.46,1.68,0.98
			C-54.99-101.17-61.94-95.89-57.45-92.78L-57.45-92.78z"/>
	</g>
	<g class="st1">
		<path d="M-54.45-88.78c-1.36-0.21-2.23-1.65-2.33-2.96c-0.38-3.46,4.03-7.71,0.05-10.2c0.65,0.04,1.25,0.46,1.68,0.98
			C-51.99-97.17-58.94-91.89-54.45-88.78L-54.45-88.78z"/>
	</g>
</g>
<g>
	<path d="M-31.45-132c-0.64,0-1.3,0.01-1.99,0.02c-8.76,0.16-15.99,1.25-17.08,5.89c-0.78,0.21-2.27,0.57-3.43,0.57
		c-1.08,0-2.58-0.3-3.49-0.52c-1.06-4.69-8.32-5.77-17.11-5.94c-0.68-0.01-1.34-0.02-1.98-0.02c-18.12,0.02-22.44,0.02-21,4.33
		c0.46,1.36,2.67,2.21,2.88,2.88c0.61,1.97,1.49,5.85,2.88,8.62c4.3,8.62,8.5,11.49,17.23,11.49c5.66,0,16.89-4.17,17.22-19.38
		c0.69,0.23,1.76,0.46,3.37,0.46c1.54,0,2.61-0.21,3.3-0.43c0.35,15.18,11.57,19.35,17.21,19.35c8.74,0,12.93-2.88,17.24-11.49
		c1.38-2.77,2.26-6.64,2.88-8.62c0.2-0.66,2.42-1.51,2.87-2.88C-9.02-131.98-13.33-131.98-31.45-132z M-58.75-124.73
		c-0.03,14.68-10.48,18.6-15.81,18.6c-8.66,0-12.11-3-15.95-10.7c-2.41-4.81-2.49-7.46-1.28-9.41c1.59-2.58,6.26-4.33,15.25-4.33
		c0.63,0,1.28,0.01,1.96,0.02c9.78,0.18,14.71,1.61,15.65,4.61c0.12,0.35,0.17,0.74,0.17,1.14V-124.73z M-17.49-116.82
		c-3.85,7.7-7.29,10.7-15.96,10.7c-5.33,0-15.8-3.93-15.8-18.67c0-0.16,0.01-0.33,0.03-0.49c0.01-0.07,0.02-0.13,0.03-0.19
		c0-0.02,0.01-0.03,0.01-0.05c0.61-3.28,5.54-4.83,15.76-5.02c0.67-0.01,1.32-0.02,1.96-0.02c8.99,0,13.66,1.75,15.25,4.33
		C-15-124.27-15.08-121.63-17.49-116.82z"/>
	<path d="M-84.63-113.06c6.61,1.41,12.72,1.61,19.41,0.66C-71.02-108.93-79.09-109.21-84.63-113.06L-84.63-113.06z"/>
	<path d="M-42.69-113.06c6.61,1.41,12.72,1.61,19.41,0.66C-29.08-108.93-37.15-109.21-42.69-113.06L-42.69-113.06z"/>
</g>
<g>
	<path d="M-32.69-74c-0.31,0-0.64,0-0.97,0.01c-4.27,0.08-7.79,0.61-8.33,2.87c-0.38,0.1-1.11,0.28-1.67,0.28
		c-0.53,0-1.26-0.14-1.7-0.25c-0.52-2.28-4.06-2.81-8.34-2.9c-0.33,0-0.65-0.01-0.97-0.01c-8.84,0.01-10.94,0.01-10.24,2.11
		c0.22,0.66,1.3,1.08,1.4,1.4c0.3,0.96,0.72,2.85,1.4,4.2c2.1,4.2,4.14,5.6,8.4,5.6c2.76,0,8.23-2.03,8.4-9.45
		c0.34,0.11,0.86,0.22,1.64,0.22c0.75,0,1.27-0.1,1.61-0.21c0.17,7.4,5.64,9.43,8.39,9.43c4.26,0,6.3-1.4,8.41-5.6
		c0.67-1.35,1.1-3.24,1.4-4.2c0.1-0.32,1.18-0.74,1.4-1.4C-21.76-73.99-23.86-73.99-32.69-74z M-46-70.45
		c-0.01,7.16-5.11,9.07-7.7,9.07c-4.22,0-5.9-1.46-7.77-5.21c-1.17-2.35-1.21-3.64-0.63-4.59c0.78-1.26,3.05-2.11,7.43-2.11
		c0.31,0,0.63,0,0.96,0.01c4.77,0.09,7.17,0.78,7.63,2.25c0.06,0.17,0.08,0.36,0.08,0.56V-70.45z M-25.89-66.6
		c-1.88,3.75-3.56,5.21-7.78,5.21c-2.6,0-7.7-1.92-7.7-9.1c0-0.08,0-0.16,0.01-0.24c0-0.03,0.01-0.07,0.01-0.09
		c0-0.01,0-0.01,0-0.02c0.3-1.6,2.7-2.35,7.68-2.45c0.33,0,0.64-0.01,0.96-0.01c4.38,0,6.66,0.86,7.43,2.11
		C-24.67-70.23-24.71-68.94-25.89-66.6z"/>
	<path d="M-58.62-64.76c3.22,0.69,6.2,0.78,9.46,0.32C-51.98-62.75-55.91-62.89-58.62-64.76L-58.62-64.76z"/>
	<path d="M-38.17-64.76c3.22,0.69,6.2,0.78,9.46,0.32C-31.54-62.75-35.47-62.89-38.17-64.76L-38.17-64.76z"/>
</g>
<path d="M-54.01-118.38c-0.01-0.09-0.01-0.14-0.01-0.14h0.03C-53.99-118.48-54.01-118.43-54.01-118.38z"/>
<path d="M-53.99-118.38v0.14c-0.01-0.03-0.01-0.06-0.01-0.1C-54.01-118.35-54.01-118.37-53.99-118.38z"/>
<text transform="matrix(1.4604 0 0 1 -96.325 -98.2247)" style="font-family:'CenturyGothic'; font-size:4px; letter-spacing:1.37;">Let Me visiualize</text>
<path d="M-84.91-83.58c3.44,0,5.16,0.71,5.16,2.13c0,0.39-0.09,0.7-0.26,0.94c-0.18,0.24-0.51,0.51-1.01,0.81
	c-0.43,0.26-0.7,0.61-0.82,1.04c-0.12,0.43-0.17,1.3-0.17,2.61c0,0.77,0.14,1.25,0.43,1.42c0.17,0.11,0.42,0.18,0.75,0.2
	c0.34,0.02,1.13,0.03,2.37,0.03c1.13,0,1.84-0.06,2.12-0.18c0.28-0.12,0.41-0.42,0.41-0.91c0-1.46-0.07-2.47-0.2-3.04
	c-0.13-0.57-0.39-0.96-0.78-1.17c-0.49-0.28-0.8-0.51-0.96-0.7s-0.23-0.45-0.23-0.77c0-0.45,0.17-0.86,0.51-1.23
	s0.79-0.62,1.34-0.75c1.15-0.28,2.58-0.41,4.31-0.41c2.03,0,3.52,0.18,4.49,0.55c0.96,0.37,1.45,0.95,1.45,1.73
	c0,0.66-0.34,1.16-1.02,1.49c-0.43,0.2-0.71,0.39-0.84,0.57c-0.13,0.18-0.24,0.52-0.31,1.02c-0.04,0.28-0.1,1.5-0.16,3.67
	c-0.07,2.17-0.1,3.9-0.1,5.17c0,2.24,0.08,3.66,0.25,4.26c0.09,0.33,0.19,0.55,0.3,0.66s0.46,0.33,1.04,0.66
	c0.42,0.23,0.63,0.58,0.63,1.06c0,0.84-0.5,1.45-1.5,1.83c-1,0.38-2.61,0.57-4.85,0.57c-1.96,0-3.41-0.19-4.35-0.58
	c-0.85-0.35-1.27-0.9-1.27-1.64c0-0.63,0.32-1.12,0.97-1.47c0.32-0.18,0.54-0.35,0.65-0.53c0.12-0.18,0.23-0.5,0.34-0.98
	c0.2-0.93,0.3-2.06,0.3-3.4c0-0.69-0.1-1.12-0.31-1.29c-0.2-0.17-0.74-0.25-1.6-0.25c-1.97,0-3.23,0.11-3.77,0.33
	c-0.22,0.09-0.36,0.35-0.41,0.78c-0.07,0.53-0.1,1.18-0.1,1.95c0,1.26,0.18,2.16,0.53,2.71c0.12,0.18,0.41,0.4,0.86,0.68
	c0.46,0.27,0.69,0.7,0.69,1.31c0,0.77-0.53,1.36-1.6,1.77c-1.07,0.41-2.59,0.61-4.58,0.61c-1.81,0-3.28-0.19-4.43-0.56
	c-0.5-0.16-0.88-0.4-1.17-0.7s-0.42-0.64-0.42-1c0-0.36,0.09-0.64,0.26-0.84c0.18-0.2,0.56-0.45,1.16-0.76
	c0.31-0.15,0.53-0.35,0.65-0.59c0.13-0.24,0.22-0.65,0.29-1.22c0.16-1.29,0.25-2.97,0.25-5.06c0-0.39-0.01-0.84-0.02-1.37
	c-0.04-2.64-0.07-4.15-0.07-4.53c0.01-0.95-0.07-1.57-0.24-1.88c-0.17-0.3-0.62-0.64-1.35-1c-0.49-0.23-0.73-0.58-0.73-1.04
	c0-1.11,1.08-1.88,3.24-2.31C-87.52-83.45-86.23-83.58-84.91-83.58z"/>
<path d="M-49.06-70.23h-5.43c-0.24,0-0.36,0.1-0.36,0.31c0,0.5,0.27,0.97,0.81,1.42c0.54,0.44,1.13,0.66,1.75,0.66
	c0.37,0,0.78-0.07,1.23-0.21c0.45-0.14,0.82-0.32,1.11-0.53c0.26-0.18,0.47-0.28,0.62-0.28c0.2,0,0.4,0.12,0.59,0.37
	c0.19,0.25,0.29,0.5,0.29,0.76c0,0.55-0.35,1.09-1.04,1.61c-1.22,0.92-2.64,1.37-4.24,1.37c-1.62,0-2.97-0.47-4.06-1.41
	c-0.53-0.46-0.97-1.02-1.32-1.67c-0.45-0.87-0.68-1.79-0.68-2.75c0-1.29,0.39-2.46,1.18-3.49c0.68-0.89,1.54-1.56,2.59-2
	c0.79-0.33,1.64-0.5,2.55-0.5c1.46,0,2.71,0.42,3.73,1.25c0.52,0.42,0.93,0.91,1.25,1.48c0.36,0.65,0.54,1.28,0.54,1.89
	c0,0.5-0.1,0.91-0.31,1.23S-48.73-70.23-49.06-70.23z M-54.19-72.39h1.17c0.49,0,0.74-0.23,0.74-0.68c0-0.42-0.12-0.75-0.36-1.02
	c-0.24-0.26-0.55-0.39-0.94-0.39c-0.43,0-0.77,0.17-1.02,0.51c-0.23,0.32-0.35,0.64-0.35,0.96c0,0.23,0.06,0.39,0.17,0.49
	C-54.66-72.43-54.46-72.39-54.19-72.39z"/>
<path d="M-26.02-74.87l-1.52,4.19c-0.38,1.04-0.76,1.89-1.14,2.55c-0.38,0.66-0.81,1.22-1.3,1.68c-1,0.95-2.21,1.43-3.61,1.43
	c-1.14,0-2.06-0.3-2.77-0.9c-0.55-0.46-0.82-1.05-0.82-1.77c0-0.59,0.19-1.09,0.57-1.5s0.85-0.61,1.4-0.61s1,0.18,1.34,0.55
	c0.16,0.17,0.27,0.32,0.32,0.45s0.13,0.42,0.24,0.87c0.08,0.34,0.28,0.51,0.58,0.51c0.24,0,0.44-0.1,0.6-0.31
	c0.16-0.21,0.24-0.47,0.24-0.77c0-0.36-0.2-0.97-0.6-1.81l-2.78-5.92c-0.29-0.62-0.51-1-0.66-1.15c-0.15-0.15-0.47-0.34-0.97-0.57
	c-0.15-0.06-0.29-0.18-0.4-0.36c-0.11-0.18-0.17-0.36-0.17-0.53c0-0.69,0.68-1.15,2.04-1.4c0.91-0.16,1.94-0.24,3.11-0.24
	c0.82,0,1.46,0.08,1.93,0.25c0.63,0.22,0.95,0.6,0.95,1.14c0,0.19-0.09,0.42-0.27,0.68c-0.17,0.25-0.25,0.47-0.25,0.66
	c0,0.18,0.04,0.38,0.12,0.58s0.25,0.54,0.51,1.02c0.29,0.54,0.55,0.81,0.77,0.81c0.24,0,0.48-0.24,0.74-0.71
	c0.25-0.47,0.38-0.93,0.38-1.37c0-0.35-0.1-0.64-0.29-0.87c-0.29-0.35-0.44-0.64-0.44-0.89c0-0.39,0.26-0.71,0.79-0.94
	c0.52-0.24,1.22-0.35,2.1-0.35c1.63,0,2.45,0.39,2.45,1.18c0,0.29-0.08,0.51-0.25,0.69c-0.17,0.17-0.47,0.34-0.91,0.49
	c-0.37,0.14-0.66,0.37-0.88,0.69C-25.19-76.91-25.58-76.06-26.02-74.87z"/>
<g>
	<path d="M67.49-38.91c-0.65,0-1.32,0.01-2.02,0.02c-8.87,0.16-16.19,1.26-17.3,5.97c-0.79,0.21-2.3,0.57-3.47,0.57
		c-1.1,0-2.61-0.3-3.53-0.52c-1.08-4.75-8.42-5.84-17.32-6.02c-0.69-0.01-1.36-0.02-2.01-0.02C3.48-38.89-0.89-38.89,0.56-34.52
		c0.47,1.38,2.71,2.24,2.91,2.91c0.62,2,1.5,5.92,2.91,8.73c4.36,8.73,8.61,11.64,17.45,11.64c5.74,0,17.1-4.22,17.44-19.62
		c0.7,0.23,1.79,0.47,3.42,0.47c1.56,0,2.64-0.21,3.34-0.44c0.36,15.37,11.71,19.6,17.43,19.6c8.85,0,13.09-2.91,17.46-11.64
		c1.4-2.8,2.29-6.73,2.91-8.73c0.2-0.67,2.45-1.53,2.9-2.91C90.2-38.89,85.84-38.89,67.49-38.91z M39.84-31.54
		c-0.03,14.87-10.61,18.84-16,18.84c-8.77,0-12.26-3.04-16.15-10.83c-2.44-4.87-2.52-7.55-1.3-9.53c1.61-2.61,6.34-4.39,15.44-4.39
		c0.64,0,1.3,0.01,1.99,0.02c9.9,0.18,14.9,1.63,15.85,4.67c0.12,0.36,0.17,0.75,0.17,1.15V-31.54z M81.63-23.53
		c-3.9,7.79-7.39,10.83-16.16,10.83c-5.4,0-15.99-3.98-15.99-18.91c0-0.17,0.01-0.33,0.03-0.49c0.01-0.07,0.02-0.14,0.03-0.19
		c0-0.02,0.01-0.03,0.01-0.05c0.62-3.32,5.61-4.89,15.96-5.09c0.68-0.01,1.34-0.02,1.99-0.02c9.1,0,13.83,1.78,15.44,4.39
		C84.15-31.08,84.06-28.4,81.63-23.53z"/>
	<path d="M13.63-19.72c6.69,1.43,12.88,1.63,19.65,0.67C27.42-15.55,19.25-15.83,13.63-19.72L13.63-19.72z"/>
	<path d="M56.1-19.72c6.69,1.43,12.88,1.63,19.65,0.67C69.89-15.55,61.72-15.83,56.1-19.72L56.1-19.72z"/>
</g>
<g>
	<path d="M69.64,12.09c-0.65,0-1.32,0.01-2.02,0.02c-8.87,0.16-16.19,1.26-17.3,5.97c-0.79,0.21-2.3,0.57-3.47,0.57
		c-1.1,0-2.61-0.3-3.53-0.52c-1.08-4.75-8.42-5.84-17.32-6.02c-0.69-0.01-1.36-0.02-2.01-0.02C5.63,12.11,1.27,12.11,2.72,16.48
		c0.47,1.38,2.71,2.24,2.91,2.91c0.62,2,1.5,5.92,2.91,8.73C12.9,36.84,17.15,39.76,26,39.76c5.74,0,17.1-4.22,17.44-19.62
		c0.7,0.23,1.79,0.47,3.42,0.47c1.56,0,2.64-0.21,3.34-0.44c0.36,15.37,11.71,19.6,17.43,19.6c8.85,0,13.09-2.91,17.46-11.64
		c1.4-2.8,2.29-6.73,2.91-8.73c0.2-0.67,2.45-1.53,2.9-2.91C92.35,12.11,88,12.11,69.64,12.09z M42,19.46
		C41.97,34.33,31.39,38.3,26,38.3c-8.77,0-12.26-3.04-16.15-10.83c-2.44-4.87-2.52-7.55-1.3-9.53c1.61-2.61,6.34-4.39,15.44-4.39
		c0.64,0,1.3,0.01,1.99,0.02c9.9,0.18,14.9,1.63,15.85,4.67C41.94,18.6,42,18.99,42,19.39V19.46z M83.78,27.47
		c-3.9,7.79-7.39,10.83-16.16,10.83c-5.4,0-15.99-3.98-15.99-18.91c0-0.17,0.01-0.33,0.03-0.49c0.01-0.07,0.02-0.14,0.03-0.19
		c0-0.02,0.01-0.03,0.01-0.05c0.62-3.32,5.61-4.89,15.96-5.09c0.68-0.01,1.34-0.02,1.99-0.02c9.1,0,13.83,1.78,15.44,4.39
		C86.31,19.92,86.22,22.6,83.78,27.47z"/>
	<path d="M15.79,31.28c6.69,1.43,12.88,1.63,19.65,0.67C29.58,35.45,21.4,35.17,15.79,31.28L15.79,31.28z"/>
	<path d="M58.26,31.28c6.69,1.43,12.88,1.63,19.65,0.67C72.05,35.45,63.87,35.17,58.26,31.28L58.26,31.28z"/>
</g>
<g>
	<g>
		<path d="M68.31-75c-0.31,0-0.64,0-0.97,0.01c-4.27,0.08-7.79,0.61-8.33,2.87c-0.38,0.1-1.11,0.28-1.67,0.28
			c-0.53,0-1.26-0.14-1.7-0.25c-0.52-2.28-4.06-2.81-8.34-2.9C46.96-75,46.64-75,46.33-75c-8.84,0.01-10.94,0.01-10.24,2.11
			c0.22,0.66,1.3,1.08,1.4,1.4c0.3,0.96,0.72,2.85,1.4,4.2c2.1,4.2,4.14,5.6,8.4,5.6c2.76,0,8.23-2.03,8.4-9.45
			c0.34,0.11,0.86,0.22,1.64,0.22c0.75,0,1.27-0.1,1.61-0.21c0.17,7.4,5.64,9.43,8.39,9.43c4.26,0,6.3-1.4,8.41-5.6
			c0.67-1.35,1.1-3.24,1.4-4.2c0.1-0.32,1.18-0.74,1.4-1.4C79.24-74.99,77.14-74.99,68.31-75z M55-71.45
			c-0.01,7.16-5.11,9.07-7.7,9.07c-4.22,0-5.9-1.46-7.77-5.21c-1.17-2.35-1.21-3.64-0.63-4.59c0.78-1.26,3.05-2.11,7.43-2.11
			c0.31,0,0.63,0,0.96,0.01c4.77,0.09,7.17,0.78,7.63,2.25c0.06,0.17,0.08,0.36,0.08,0.56V-71.45z M75.11-67.6
			c-1.88,3.75-3.56,5.21-7.78,5.21c-2.6,0-7.7-1.92-7.7-9.1c0-0.08,0-0.16,0.01-0.24c0-0.03,0.01-0.07,0.01-0.09
			c0-0.01,0-0.01,0-0.02c0.3-1.6,2.7-2.35,7.68-2.45c0.33,0,0.64-0.01,0.96-0.01c4.38,0,6.66,0.86,7.43,2.11
			C76.33-71.23,76.29-69.94,75.11-67.6z"/>
		<path d="M42.38-65.76c3.22,0.69,6.2,0.78,9.46,0.32C49.02-63.75,45.09-63.89,42.38-65.76L42.38-65.76z"/>
		<path d="M62.83-65.76c3.22,0.69,6.2,0.78,9.46,0.32C69.46-63.75,65.53-63.89,62.83-65.76L62.83-65.76z"/>
	</g>
	<path d="M51.94-71.23h-5.43c-0.24,0-0.36,0.1-0.36,0.31c0,0.5,0.27,0.97,0.81,1.42c0.54,0.44,1.13,0.66,1.75,0.66
		c0.37,0,0.78-0.07,1.23-0.21c0.45-0.14,0.82-0.32,1.11-0.53c0.26-0.18,0.47-0.28,0.62-0.28c0.2,0,0.4,0.12,0.59,0.37
		c0.19,0.25,0.29,0.5,0.29,0.76c0,0.55-0.35,1.09-1.04,1.61c-1.22,0.92-2.64,1.37-4.24,1.37c-1.62,0-2.97-0.47-4.06-1.41
		c-0.53-0.46-0.97-1.02-1.32-1.67c-0.45-0.87-0.68-1.79-0.68-2.75c0-1.29,0.39-2.46,1.18-3.49c0.68-0.89,1.54-1.56,2.59-2
		c0.79-0.33,1.64-0.5,2.55-0.5c1.46,0,2.71,0.42,3.73,1.25c0.52,0.42,0.93,0.91,1.25,1.48c0.36,0.65,0.54,1.28,0.54,1.89
		c0,0.5-0.1,0.91-0.31,1.23S52.27-71.23,51.94-71.23z M46.81-73.39h1.17c0.49,0,0.74-0.23,0.74-0.68c0-0.42-0.12-0.75-0.36-1.02
		c-0.24-0.26-0.55-0.39-0.94-0.39c-0.43,0-0.77,0.17-1.02,0.51c-0.23,0.32-0.35,0.64-0.35,0.96c0,0.23,0.06,0.39,0.17,0.49
		C46.34-73.43,46.54-73.39,46.81-73.39z"/>
	<path d="M74.98-75.87l-1.52,4.19c-0.38,1.04-0.76,1.89-1.14,2.55c-0.38,0.66-0.81,1.22-1.3,1.68c-1,0.95-2.21,1.43-3.61,1.43
		c-1.14,0-2.06-0.3-2.77-0.9c-0.55-0.46-0.82-1.05-0.82-1.77c0-0.59,0.19-1.09,0.57-1.5s0.85-0.61,1.4-0.61s1,0.18,1.34,0.55
		c0.16,0.17,0.27,0.32,0.32,0.45s0.13,0.42,0.24,0.87c0.08,0.34,0.28,0.51,0.58,0.51c0.24,0,0.44-0.1,0.6-0.31
		c0.16-0.21,0.24-0.47,0.24-0.77c0-0.36-0.2-0.97-0.6-1.81l-2.78-5.92c-0.29-0.62-0.51-1-0.66-1.15c-0.15-0.15-0.47-0.34-0.97-0.57
		c-0.15-0.06-0.29-0.18-0.4-0.36c-0.11-0.18-0.17-0.36-0.17-0.53c0-0.69,0.68-1.15,2.04-1.4c0.91-0.16,1.94-0.24,3.11-0.24
		c0.82,0,1.46,0.08,1.93,0.25c0.63,0.22,0.95,0.6,0.95,1.14c0,0.19-0.09,0.42-0.27,0.68c-0.17,0.25-0.25,0.47-0.25,0.66
		c0,0.18,0.04,0.38,0.12,0.58s0.25,0.54,0.51,1.02c0.29,0.54,0.55,0.81,0.77,0.81c0.24,0,0.48-0.24,0.74-0.71
		c0.25-0.47,0.38-0.93,0.38-1.37c0-0.35-0.1-0.64-0.29-0.87c-0.29-0.35-0.44-0.64-0.44-0.89c0-0.39,0.26-0.71,0.79-0.94
		c0.52-0.24,1.22-0.35,2.1-0.35c1.63,0,2.45,0.39,2.45,1.18c0,0.29-0.08,0.51-0.25,0.69c-0.17,0.17-0.47,0.34-0.91,0.49
		c-0.37,0.14-0.66,0.37-0.88,0.69C75.81-77.91,75.42-77.06,74.98-75.87z"/>
</g>
<text transform="matrix(1 0 0 1 14.8604 -62.5439)" class="st3" style="font-size:32.5755px; letter-spacing:13;">h</text>
<text transform="matrix(1 0 0 1 15.4229 -19.5361)" class="st3" style="font-size:24.3247px; letter-spacing:9;">S</text>
<text transform="matrix(1 0 0 1 59.4229 -19.5361)" class="st3" style="font-size:24.3247px; letter-spacing:9;">S</text>
<text transform="matrix(1 0 0 1 11.7197 13.96)" class="st3 st4 st5">Wise</text>
</svg>
