<?xml version="1.0" encoding="utf-8"?>
<!-- Generator: Adobe Illustrator 26.0.1, SVG Export Plug-In . SVG Version: 6.00 Build 0)  -->
<svg version="1.1" id="Layer_1" xmlns="http://www.w3.org/2000/svg" xmlns:xlink="http://www.w3.org/1999/xlink" x="0px" y="0px"
	 viewBox="0 0 90 30" style="enable-background:new 0 0 90 30;" xml:space="preserve">
<g>
	<path d="M67.55,1.34c-0.64,0-1.3,0.01-1.99,0.02c-8.76,0.16-15.99,1.25-17.08,5.89c-0.78,0.21-2.27,0.57-3.43,0.57
		c-1.08,0-2.58-0.3-3.49-0.52c-1.06-4.69-8.32-5.77-17.11-5.94c-0.68-0.01-1.34-0.02-1.98-0.02C4.34,1.36,0.02,1.36,1.46,5.67
		c0.46,1.36,2.67,2.21,2.88,2.88c0.61,1.97,1.49,5.85,2.88,8.62c4.3,8.62,8.5,11.49,17.23,11.49c5.66,0,16.89-4.17,17.22-19.38
		c0.69,0.23,1.76,0.46,3.37,0.46c1.54,0,2.61-0.21,3.3-0.43c0.35,15.18,11.57,19.35,17.21,19.35c8.74,0,12.93-2.88,17.24-11.49
		c1.38-2.77,2.26-6.64,2.88-8.62c0.2-0.66,2.42-1.51,2.87-2.88C89.98,1.36,85.67,1.36,67.55,1.34z M40.25,8.62
		c-0.03,14.68-10.48,18.6-15.81,18.6c-8.66,0-12.11-3-15.95-10.7C6.09,11.71,6,9.07,7.21,7.11c1.59-2.58,6.26-4.33,15.25-4.33
		c0.63,0,1.28,0.01,1.96,0.02c9.78,0.18,14.71,1.61,15.65,4.61c0.12,0.35,0.17,0.74,0.17,1.14V8.62z M81.51,16.52
		c-3.85,7.7-7.29,10.7-15.96,10.7c-5.33,0-15.8-3.93-15.8-18.67c0-0.16,0.01-0.33,0.03-0.49c0.01-0.07,0.02-0.13,0.03-0.19
		c0-0.02,0.01-0.03,0.01-0.05c0.61-3.28,5.54-4.83,15.76-5.02c0.67-0.01,1.32-0.02,1.96-0.02c8.99,0,13.66,1.75,15.25,4.33
		C84,9.07,83.92,11.71,81.51,16.52z"/>
	<path d="M14.37,20.29c6.61,1.41,12.72,1.61,19.41,0.66C27.98,24.41,19.91,24.13,14.37,20.29L14.37,20.29z"/>
	<path d="M56.31,20.29c6.61,1.41,12.72,1.61,19.41,0.66C69.92,24.41,61.85,24.13,56.31,20.29L56.31,20.29z"/>
</g>
</svg>
